# xmcd
#
# Track frame offsets:
#	225
#	14396
#	28706
#	42698
#	58009
#	70314
#	83031
#	96889
#	108747
#	126234
#	148958
#	160810
#	175767
#	191080
#	206503
#	218541
#	232236
#	246524
#	263718
#	277983
#
# Disc length: 3942 seconds
#
# Revision: 0
# Processed by: cddbd v1.5.2PL0 Copyright (c) Steve Scherf et al.
# Submitted via: EasyCDDAExtractor 16.0.1.1
#
DISCID=330f6314
DTITLE=Mary Duff - The Collection
DYEAR=1900
DGENRE=Country
TTITLE0=Your One And Only
TTITLE1=I'll Be Your San Antone Rose
TTITLE2=Love Someone Like Me
TTITLE3=Can I Sleep In Your Arms
TTITLE4=Are You Teasing Me?
TTITLE5=Do Me With Love
TTITLE6=She's Got You
TTITLE7=The One You Slip Around With
TTITLE8=Mam Was A Working Man
TTITLE9=Down By The Sally Gardens
TTITLE10=Once A Day
TTITLE11=Does Fort Worth Ever Cross Your Mind
TTITLE12=Forever And Ever Amen
TTITLE13=Walk The Way The Wind Blows
TTITLE14=I'm Not That Lonely Yet
TTITLE15=Chicken Every Sunday
TTITLE16=Just Out Of Reach
TTITLE17=One Bird On A Wing
TTITLE18=It's Not Over (If I'm Not Over You)
TTITLE19=Maggie
EXTD=
EXTT0=
EXTT1=
EXTT2=
EXTT3=
EXTT4=
EXTT5=
EXTT6=
EXTT7=
EXTT8=
EXTT9=
EXTT10=
EXTT11=
EXTT12=
EXTT13=
EXTT14=
EXTT15=
EXTT16=
EXTT17=
EXTT18=
EXTT19=
PLAYORDER=
